<?xml version="1.0" encoding="UTF-8" standalone="no"?>
<!DOCTYPE svg PUBLIC "-//W3C//DTD SVG 1.1//EN"
 "http://www.w3.org/Graphics/SVG/1.1/DTD/svg11.dtd">
<!-- Generated by graphviz version 5.0.1 (20220820.1526)
 -->
<!-- Title: COLA Pages: 1 -->
<svg width="793pt" height="44pt"
 viewBox="0.00 0.00 793.00 44.00" xmlns="http://www.w3.org/2000/svg" xmlns:xlink="http://www.w3.org/1999/xlink">
<g id="graph0" class="graph" transform="scale(1 1) rotate(0) translate(4 40)">
<title>COLA</title>
<polygon fill="white" stroke="none" points="-4,4 -4,-40 789,-40 789,4 -4,4"/>
<!-- 1 -->
<g id="node1" class="node">
<title>1</title>
<polygon fill="lightgrey" stroke="black" points="245,-36 0,-36 0,0 245,0 245,-36"/>
<text text-anchor="middle" x="122.5" y="-14.3" font-family="Times New Roman,serif" font-size="14.00">ORDEN #3 INGREDIENTE:CHORIZO</text>
</g>
<!-- 2 -->
<g id="node2" class="node">
<title>2</title>
<polygon fill="lightgrey" stroke="black" points="515,-36 281,-36 281,0 515,0 515,-36"/>
<text text-anchor="middle" x="398" y="-14.3" font-family="Times New Roman,serif" font-size="14.00">ORDEN #3 INGREDIENTE:SALAMI</text>
</g>
<!-- 1&#45;&gt;2 -->
<g id="edge1" class="edge">
<title>1&#45;&gt;2</title>
<path fill="none" stroke="black" d="M245.05,-18C253.47,-18 261.97,-18 270.41,-18"/>
<polygon fill="black" stroke="black" points="270.68,-21.5 280.68,-18 270.68,-14.5 270.68,-21.5"/>
</g>
<!-- 3 -->
<g id="node3" class="node">
<title>3</title>
<polygon fill="lightgrey" stroke="black" points="785,-36 551,-36 551,0 785,0 785,-36"/>
<text text-anchor="middle" x="668" y="-14.3" font-family="Times New Roman,serif" font-size="14.00">ORDEN #3 INGREDIENTE:SALAMI</text>
</g>
<!-- 2&#45;&gt;3 -->
<g id="edge2" class="edge">
<title>2&#45;&gt;3</title>
<path fill="none" stroke="black" d="M515.38,-18C523.71,-18 532.14,-18 540.53,-18"/>
<polygon fill="black" stroke="black" points="540.74,-21.5 550.74,-18 540.74,-14.5 540.74,-21.5"/>
</g>
</g>
</svg>
